<?xml version="1.0" encoding="iso-8859-1"?>
<!-- Generator: Adobe Illustrator 19.0.0, SVG Export Plug-In . SVG Version: 6.00 Build 0)  -->
<svg version="1.1" id="Layer_1" xmlns="http://www.w3.org/2000/svg" xmlns:xlink="http://www.w3.org/1999/xlink" x="0px" y="0px"
	 viewBox="0 0 511.999 511.999" style="enable-background:new 0 0 511.999 511.999;" xml:space="preserve">
<g>
	
		<rect x="129.192" y="54.06" transform="matrix(-0.5667 -0.8239 0.8239 -0.5667 92.1897 362.1522)" style="fill:#F95428;" width="24.258" height="205.55"/>
	
		<rect x="267.914" y="144.702" transform="matrix(-0.8239 -0.5667 0.5667 -0.8239 587.2275 496.12)" style="fill:#F95428;" width="205.55" height="24.258"/>
</g>
<path style="fill:#E54728;" d="M490.22,241.794l-3.712,26.684l-26.815,192.657c-1.385,9.952-9.896,17.361-19.944,17.361H72.259
	c-10.049,0-18.559-7.409-19.944-17.361L25.499,268.479l-3.712-26.684H490.22z"/>
<polygon style="fill:#F95428;" points="67.401,463.941 38.508,256.349 473.499,256.349 444.606,463.941 "/>
<polygon style="fill:#E54728;" points="490.22,241.794 486.508,268.479 25.499,268.479 21.788,241.794 "/>
<g>
	<path style="fill:#FFFFFF;" d="M121.109,307.639h3.771c6.562,0,11.901,5.338,11.901,11.9c0,5.024,4.072,9.097,9.097,9.097
		s9.097-4.073,9.097-9.097c0-16.594-13.501-30.094-30.095-30.094h-3.771c-18.674,0-33.867,15.192-33.867,33.866
		c0,18.674,15.192,33.866,33.867,33.866c8.642,0,15.672,7.031,15.672,15.672c0,8.641-7.03,15.672-15.672,15.672h-3.772
		c-6.562,0-11.901-5.338-11.901-11.9c0-5.024-4.072-9.097-9.097-9.097c-5.025,0-9.097,4.073-9.097,9.097
		c0,16.594,13.501,30.094,30.095,30.094h3.772c18.674,0,33.866-15.192,33.866-33.866c0-18.674-15.192-33.866-33.866-33.866
		c-8.642,0-15.673-7.03-15.673-15.672C105.436,314.669,112.467,307.639,121.109,307.639z"/>
	<path style="fill:#FFFFFF;" d="M330.937,374.741c-5.025,0-9.097,4.073-9.097,9.097v4.684h-31.346v-89.981
		c0-5.024-4.072-9.097-9.097-9.097s-9.097,4.073-9.097,9.097v99.078c0,5.024,4.072,9.097,9.097,9.097h49.539
		c5.025,0,9.097-4.073,9.097-9.097v-13.781C340.034,378.814,335.961,374.741,330.937,374.741z"/>
	<path style="fill:#FFFFFF;" d="M415.66,324.149c5.025,0,9.097-4.073,9.097-9.097v-16.51c0-5.024-4.072-9.097-9.097-9.097h-49.539
		c-5.025,0-9.097,4.073-9.097,9.097v99.078c0,5.024,4.072,9.097,9.097,9.097h49.539c5.025,0,9.097-4.073,9.097-9.097v-13.781
		c0-5.024-4.072-9.097-9.097-9.097s-9.097,4.073-9.097,9.097v4.684h-31.346v-31.346h18.849c5.025,0,9.097-4.073,9.097-9.097
		s-4.072-9.097-9.097-9.097h-18.849v-31.344h31.346v7.413C406.563,320.076,410.636,324.149,415.66,324.149z"/>
	<path style="fill:#FFFFFF;" d="M211.008,290.086c-18.497,0-33.545,15.049-33.545,33.546v73.345c0,5.024,4.072,9.097,9.097,9.097
		c5.025,0,9.097-4.073,9.097-9.097v-23.922h30.703v23.922c0,5.024,4.072,9.097,9.097,9.097c5.025,0,9.097-4.073,9.097-9.097v-73.345
		C244.554,305.134,229.506,290.086,211.008,290.086z M195.658,354.862v-31.23c0-8.465,6.887-15.352,15.351-15.352
		c8.465,0,15.352,6.887,15.352,15.352v31.23H195.658z"/>
</g>
<g>
	<path style="fill:#666666;" d="M501.089,250.26H10.91C4.884,250.26,0,245.376,0,239.35v-28.418c0-6.026,4.884-10.91,10.91-10.91
		h490.178c6.026,0,10.91,4.884,10.91,10.91v28.418C512,245.375,507.114,250.26,501.089,250.26z"/>
	<path style="fill:#666666;" d="M256.001,127.724c-25.977,0-47.111-21.134-47.111-47.11c0-25.977,21.134-47.111,47.111-47.111
		c25.976,0,47.11,21.134,47.11,47.111C303.109,106.59,281.977,127.724,256.001,127.724z M256.001,57.761
		c-12.601,0-22.853,10.252-22.853,22.853c0,12.601,10.252,22.851,22.853,22.851c12.601,0,22.851-10.252,22.851-22.851
		S268.6,57.761,256.001,57.761z"/>
</g>
<g>
</g>
<g>
</g>
<g>
</g>
<g>
</g>
<g>
</g>
<g>
</g>
<g>
</g>
<g>
</g>
<g>
</g>
<g>
</g>
<g>
</g>
<g>
</g>
<g>
</g>
<g>
</g>
<g>
</g>
</svg>
