<svg xmlns="http://www.w3.org/2000/svg" width="167" height="34" viewBox="0 0 167 34">
    <g fill="#636363" fill-rule="evenodd">
        <path d="M98.665.913h4.088v25.593h-4.088zM51.243 8.097h4.088v18.436h-4.088zM22.436 8.097h4.088v18.436h-4.088zM110.93 8.07c-2.834 0-5.096 2.277-5.096 5.124v8.242c0 2.874 2.207 5.07 5.096 5.07h13.437V8.07H110.93zm9.348 14.396h-8.203c-1.09 0-2.153-1.057-2.153-2.142v-6.262c0-1.03.981-1.898 2.153-1.898h8.203v10.302zM82.123 8.07c-2.835 0-5.097 2.277-5.097 5.124v8.242c0 2.874 2.208 5.07 5.097 5.07h13.436V8.07H82.123zm9.375 14.396h-8.203c-1.09 0-2.153-1.057-2.153-2.142v-6.262c0-1.03.98-1.898 2.153-1.898h8.203v10.302zM58.439.913h4.088v25.593h-4.088zM75.5 8.07h-5.315l-7.658 9.218 7.658 9.218H75.5l-7.686-9.218zM48.164 8.07H34.728c-2.835 0-5.097 2.277-5.097 5.124v8.242c0 2.874 2.208 5.07 5.097 5.07h13.436V8.07zM33.72 20.324v-6.262c0-1.03.982-1.898 2.154-1.898h8.203v10.302h-8.203c-1.09 0-2.154-1.057-2.154-2.142z"/>
        <path d="M44.076 21.951v5.504c0 1.084-1.063 2.142-2.153 2.142h-8.204l3.08 4.066h6.269c2.889 0 5.096-2.196 5.096-5.07v-6.642h-4.088zM22.436.913h4.088V4.98h-4.088zM51.243.913h4.088V4.98h-4.088zM15.268.913V8.07H5.92c-2.889 0-5.096 2.196-5.096 5.07v8.242c0 2.846 2.262 5.124 5.096 5.124h13.437V.912h-4.089zm0 21.526H7.065c-1.172 0-2.153-.867-2.153-1.898V14.035c0-1.03.981-1.898 2.153-1.898h8.203v10.302zM161.705 26.506h-34.15V8.07h34.15c2.889 0 5.096 2.196 5.096 5.07v8.242c0 2.846-2.262 5.124-5.096 5.124zm-20.06-4.23h-.027v-10.14h-2.07l-2.944 4.8-2.944-4.8h-2.071v10.14h2.017v-6.56l2.889 4.69h.245l2.889-4.69v6.56h2.017zm7.877-1.843l.6 1.816h2.207l-3.597-10.112h-2.508l-3.597 10.112h2.18l.627-1.816h4.088zm13.872-2.82V16.8h-5.123v1.762h3.107c-.355 1.166-1.39 1.925-2.998 1.925-2.153 0-3.516-1.437-3.516-3.307 0-1.925 1.39-3.335 3.352-3.335 1.254 0 2.29.596 2.753 1.41l1.717-.976c-.872-1.383-2.508-2.36-4.47-2.36-3.052 0-5.369 2.36-5.369 5.288 0 2.9 2.29 5.26 5.505 5.26 2.944 0 5.042-1.926 5.042-4.854z"/>
        <path d="M147.478 14.441l-1.417 4.148h2.834z"/>
    </g>
</svg>
