<?xml version="1.0" encoding="UTF-8"?>
<svg width="191px" height="56px" viewBox="0 0 191 56" version="1.1" xmlns="http://www.w3.org/2000/svg" xmlns:xlink="http://www.w3.org/1999/xlink">
    <!-- Generator: Sketch 53.1 (72631) - https://sketchapp.com -->
    <title>Artboard</title>
    <desc>Created with Sketch.</desc>
    <g id="Artboard" stroke="none" stroke-width="1" fill="none" fill-rule="evenodd">
        <g id="Group-18">
            <g id="Group">
                <path d="M10.5,21 C4.69042212,21 0,25.6928596 0,31.5032746 L0,56 L10.5,56 C16.307397,56 21,51.3071409 21,45.496726 L21,21 L10.5,21 Z" id="Path" fill="#9E9E9E"></path>
                <path d="M22,21 L22,41 L31.9989614,41 C37.5324674,41 42,36.5324674 42,30.9989614 L42,21 L22,21 Z" id="Path" fill="#B8B8B8"></path>
                <path d="M0,0 L0,10 C0,15.5308543 4.69066568,20 10.5005453,20 L42,20 L42,10 C42,4.46706868 37.3093343,0 31.4994547,0 L0,0 Z" id="Path" fill="#828282"></path>
            </g>
            <path d="M75.9700933,11.7831352 L79.7849093,11.7831352 L79.7849093,8 L75.9700933,8 L75.9700933,11.7831352 Z M68.9273562,16.8738591 L56.3076515,16.8738591 C52.7877501,16.8738591 50,19.637395 50,23.1281772 L50,34.3277699 C50,37.0913058 52.2008554,39.2730446 54.9886055,39.2730446 L72.5954484,39.2730446 L72.5954484,8.00145449 L68.7791652,8.00145449 L68.9273562,16.8738591 Z M68.9273562,35.491364 L54.9886055,35.491364 C54.254987,35.491364 53.6680923,34.9095669 53.6680923,34.1823206 L53.6680923,22.9827279 C53.6680923,21.6736846 54.8404146,20.5100905 56.162395,20.5100905 L68.7791652,20.5100905 L68.7791652,35.491364 L68.9273562,35.491364 Z M75.9700933,39.2730446 L79.7849093,39.2730446 L79.7849093,16.8753136 L75.9700933,16.8753136 L75.9700933,39.2730446 Z M142.289202,23.1281772 L142.289202,34.3277699 C142.289202,37.0913058 144.490057,39.2730446 147.27634,39.2730446 L164.883183,39.2730446 L164.883183,16.8738591 L148.45013,16.8738591 C145.075485,16.8738591 142.289202,19.637395 142.289202,23.1281772 L142.289202,23.1281772 Z M161.069834,35.491364 L147.27634,35.491364 C146.542722,35.491364 145.957294,34.9095669 145.957294,34.1823206 L145.957294,22.9827279 C145.957294,21.6736846 147.131084,20.5100905 148.45013,20.5100905 L161.069834,20.5100905 L161.069834,35.491364 Z M109.12818,39.2730446 L112.942996,39.2730446 L112.942996,16.8753136 L109.12818,16.8753136 L109.12818,39.2730446 Z M109.12818,11.7831352 L112.942996,11.7831352 L112.942996,8 L109.12818,8 L109.12818,11.7831352 Z M133.77776,16.8738591 L116.172385,16.8738591 L116.172385,48 L119.987201,48 L119.987201,39.2730446 L132.603971,39.2730446 C136.126807,39.2730446 138.91309,36.5095087 138.91309,33.0187266 L138.91309,21.8191338 C138.91309,19.055598 136.566978,16.8738591 133.77776,16.8738591 L133.77776,16.8738591 Z M135.099741,33.0187266 C135.099741,34.3277699 133.925951,35.491364 132.603971,35.491364 L119.987201,35.491364 L119.987201,20.5100905 L133.77776,20.5100905 C134.511379,20.5100905 135.099741,21.0918876 135.099741,21.8191338 L135.099741,33.0187266 Z M83.1595542,23.1281772 L83.1595542,34.3277699 C83.1595542,35.6368132 83.746449,36.9458565 84.6267911,37.8185521 C85.6523897,38.8366968 86.8276465,39.2730446 88.1481597,39.2730446 L101.940187,39.2730446 L101.940187,41.745682 C101.940187,43.0547253 100.766397,44.2183193 99.4458839,44.2183193 L89.6153966,44.2183193 L92.5498704,48 L99.5911404,48 C103.113976,48 105.901726,45.2364641 105.901726,41.745682 L105.901726,16.8738591 L89.320482,16.8738591 C85.9473043,16.8738591 83.1595542,19.637395 83.1595542,23.1281772 L83.1595542,23.1281772 Z M101.940187,35.491364 L88.1481597,35.491364 C87.4145413,35.491364 86.8276465,34.9095669 86.8276465,34.1823206 L86.8276465,22.9827279 C86.8276465,21.6736846 88.001436,20.5100905 89.320482,20.5100905 L101.940187,20.5100905 L101.940187,35.491364 Z M187.039928,16.8738591 L187.039928,35.491364 L173.247901,35.491364 C172.514282,35.491364 171.92592,34.9095669 171.92592,34.1823206 L171.92592,16.7284099 L168.112571,16.7284099 L168.112571,34.1823206 C168.112571,35.491364 168.699466,36.8004073 169.579808,37.6731028 C170.458683,38.6912476 171.780664,39.1275954 173.101177,39.1275954 L186.891737,39.1275954 L186.891737,41.6002327 C186.891737,42.909276 185.719414,44.0728701 184.397434,44.0728701 L174.715138,44.0728701 L177.649611,47.8545507 L184.690881,47.8545507 C188.213717,47.8545507 191,45.0910149 191,41.6002327 L191,16.7284099 L187.039928,16.8738591 Z" id="Fill-16" fill="#4E4E4E"></path>
        </g>
    </g>
</svg>