<?xml version="1.0" encoding="UTF-8"?>
<svg width="106px" height="17px" viewBox="0 0 106 17" version="1.1" xmlns="http://www.w3.org/2000/svg" xmlns:xlink="http://www.w3.org/1999/xlink">
    <!-- Generator: Sketch 48.1 (47250) - http://www.bohemiancoding.com/sketch -->
    <title>DIGISTYLE</title>
    <desc>Created with Sketch.</desc>
    <defs></defs>
    <g id="Digikala-Home---1024" stroke="none" stroke-width="1" fill="none" fill-rule="evenodd" transform="translate(-417.000000, -6023.000000)">
        <g id="Group-18" transform="translate(0.000000, 5269.000000)" fill="#636363">
            <g id="Group-12" transform="translate(166.000000, 747.000000)">
                <path d="M257.401949,7.60293162 C261.785117,7.60293162 264.941906,11.1458034 264.941906,15.5516823 C264.941906,19.9575613 261.785117,23.5004331 257.401949,23.5004331 L251.201923,23.5004331 L251.201923,7.60293162 L257.401949,7.60293162 Z M257.401949,21.50189 C260.672292,21.50189 262.920653,18.9128684 262.920653,15.5516823 C262.920653,12.1904963 260.672292,9.60147466 257.401949,9.60147466 L253.31402,9.60147466 L253.31402,21.50189 L257.401949,21.50189 Z M267.508217,7.60293162 L269.620314,7.60293162 L269.620314,23.5004331 L267.508217,23.5004331 L267.508217,7.60293162 Z M288.356655,15.6198145 L288.356655,16.5736646 C288.356655,20.6161721 285.35884,23.7956724 280.566879,23.7956724 C275.661365,23.7956724 272.186625,20.0938256 272.186625,15.5516823 C272.186625,10.9868284 275.684075,7.30769231 280.521458,7.30769231 C283.496562,7.30769231 286.085583,8.87473174 287.402805,11.1458034 L285.585948,12.213207 C284.677519,10.5099033 282.747108,9.35165678 280.498747,9.35165678 C276.819611,9.35165678 274.276011,12.0769427 274.276011,15.5516823 C274.276011,19.0037112 276.7969,21.7289972 280.58959,21.7289972 C283.882644,21.7289972 285.835766,19.9121399 286.244558,17.5275147 L280.407904,17.5275147 L280.407904,15.6198145 L288.356655,15.6198145 Z M290.922966,7.60293162 L293.035063,7.60293162 L293.035063,23.5004331 L290.922966,23.5004331 L290.922966,7.60293162 Z M301.574292,23.7956724 C298.553767,23.7956724 296.396249,22.2740544 295.555952,19.8894292 L297.372809,18.8447362 C297.940577,20.5934614 299.30322,21.7289972 301.619713,21.7289972 C303.868074,21.7289972 304.980899,20.707015 304.980899,19.2762398 C304.980899,17.6410682 303.572835,17.0960111 301.233631,16.3692681 C298.690031,15.5516823 296.237274,14.7568073 296.237274,11.8044141 C296.237274,8.94286389 298.576477,7.30769231 301.233631,7.30769231 C303.845364,7.30769231 305.730353,8.78388887 306.616071,10.7824319 L304.844635,11.8044141 C304.276867,10.4417712 303.164042,9.35165678 301.233631,9.35165678 C299.530327,9.35165678 298.34937,10.2600854 298.34937,11.7135713 C298.34937,13.1897678 299.462195,13.734825 301.687846,14.4388572 C304.458553,15.3472859 307.070285,16.1648717 307.070285,19.2308184 C307.070285,22.0242365 304.821924,23.7956724 301.574292,23.7956724 Z M319.742865,7.60293162 L319.742865,9.60147466 L315.041747,9.60147466 L315.041747,23.5004331 L312.952361,23.5004331 L312.952361,9.60147466 L308.273953,9.60147466 L308.273953,7.60293162 L319.742865,7.60293162 Z M333.664534,7.60293162 L328.032276,17.0733003 L328.032276,23.5004331 L325.92018,23.5004331 L325.92018,17.0505896 L320.310633,7.60293162 L322.672547,7.60293162 L326.987584,15.0520466 L331.30262,7.60293162 L333.664534,7.60293162 Z M337.66162,21.50189 L344.520257,21.50189 L344.520257,23.5004331 L335.549524,23.5004331 L335.549524,7.60293162 L337.66162,7.60293162 L337.66162,21.50189 Z M348.74445,21.50189 L356.125433,21.50189 L356.125433,23.5004331 L346.632353,23.5004331 L346.632353,7.60293162 L356.011879,7.60293162 L356.011879,9.60147466 L348.74445,9.60147466 L348.74445,14.4842787 L355.444111,14.4842787 L355.444111,16.460111 L348.74445,16.460111 L348.74445,21.50189 Z" id="DIGISTYLE"></path>
            </g>
        </g>
    </g>
</svg>