<?xml version="1.0" encoding="UTF-8"?>
<svg width="115px" height="38px" viewBox="0 0 115 38" version="1.1" xmlns="http://www.w3.org/2000/svg" xmlns:xlink="http://www.w3.org/1999/xlink">
    <!-- Generator: Sketch 48.2 (47327) - http://www.bohemiancoding.com/sketch -->
    <title>icon-fidibo (1)</title>
    <desc>Created with Sketch.</desc>
    <defs></defs>
    <g id="homepage-1680-1x-" stroke="none" stroke-width="1" fill="none" fill-rule="evenodd" transform="translate(-933.000000, -7137.000000)">
        <g id="icon-fidibo-(1)" transform="translate(933.000000, 7137.000000)" fill="#7D7D7D">
            <path d="M79.6644774,27.0406411 C79.6644774,28.0984545 79.6644774,28.8540355 80.3619839,29.5592444 C81.0594904,30.2644533 81.8068188,29.9118489 82.8530786,29.9118489 C86.0416797,29.9118489 102.433082,29.9118489 103.180411,29.9118489 C103.529164,29.9118489 104.22667,29.9118489 104.625246,29.9118489 C105.671505,29.9118489 106.418834,29.5592444 107.465093,29.5592444 C115.635884,27.3932456 118.1768,15.5054379 109.956188,10.1156268 C104.276492,6.48883801 95.7071268,9.41041786 93.9135387,16.2610189 C93.5647854,18.4270177 93.2160322,19.8374356 93.9135387,22.0034345 C94.2622919,22.7086434 94.2622919,23.4642244 94.6110452,24.1694333 C94.9597984,24.8746422 95.6573049,25.6302232 96.0060582,25.9828277 C94.6110452,25.9828277 93.1662103,25.9828277 92.0701287,25.9828277 C90.2765405,25.9828277 90.2765405,25.6302232 90.2765405,23.8168288 L90.2765405,11.5764167 C90.2765405,10.1156268 90.2765405,9.05781339 89.579034,8.35260446 C88.5327743,7.64739554 87.4366927,8.35260446 86.7391862,9.05781339 C86.3904329,9.76302232 86.3904329,11.9290212 86.3904329,13.0372066 C86.3904329,14.09502 86.3904329,24.5724098 86.3904329,25.2776188 C86.3904329,25.9828277 85.6929264,25.9828277 85.3441732,26.3354322 C84.6466667,26.3354322 83.8993383,26.3354322 83.5505851,25.9828277 C82.8530786,25.2776188 83.2018318,19.4848311 83.2018318,18.0744133 C82.8530786,13.7424156 80.0132307,10.1659989 76.0773012,8.70520893 C73.5862066,8 71.4438652,8 68.6040173,8 C63.2730748,8 57.8923104,8 52.2126147,8 L40.1058948,8 C37.6148002,8 37.6148002,10.5186033 38.6610599,11.2238122 C39.0098132,11.5764167 39.7073197,11.5764167 40.4546481,11.5764167 C49.7215201,11.5764167 59.3371453,11.5764167 68.9527706,11.5764167 C71.7926184,11.5764167 73.9349598,11.2238122 76.0773012,12.6342301 C81.4082437,15.8580424 80.3619839,22.7086434 75.3797947,25.2272467 C73.9349598,25.9324556 73.5862066,25.9324556 71.7926184,25.9324556 C70.7463587,25.9324556 40.0560729,25.9324556 39.3585664,25.9324556 C38.3123067,26.2850601 37.5649783,27.3932456 38.3123067,28.451059 C39.0098132,29.5088724 39.7571416,29.5088724 41.5009078,29.5088724 C45.0880841,29.5088724 72.1413717,29.5088724 73.9349598,29.5088724 C75.7285479,29.1562679 77.1235609,28.8036634 78.5683958,27.695478 C78.9171491,27.74585 79.2659023,27.3932456 79.6644774,27.0406411 Z M103.877917,11.9290212 C98.1483996,12.6342301 95.3085517,19.8374356 100.290741,24.5220378 C101.337001,25.5798512 103.479342,26.3354322 105.621683,25.9828277 C109.159038,25.6302232 112.048708,22.3560389 111.699954,18.0744133 C111.351201,14.800229 107.813847,11.5260446 103.877917,11.9290212 Z" id="Shape"></path>
            <path d="M18.511109,24.9492728 C18.8538625,24.2581889 20.6165947,22.481116 20.9593482,18.5814283 C20.9593482,15.7677297 19.9310877,13.2995729 18.8538625,11.868042 C17.7766372,10.4365111 16.0628698,8.70880136 13.6146306,8.31389628 C4.84993421,5.84573953 -1.46652293,13.5957517 0.296209292,20.3091381 C1.32446976,24.5543677 3.82167374,27.3680664 7.6409269,28.4046922 C7.98368039,28.4046922 9.06090564,28.7502342 9.40365913,28.7502342 L5.1926877,32.9954638 C4.50718072,34.0320896 4.84993421,35.4636205 5.87819468,35.8091625 C7.29817341,36.5002463 8.32643388,35.1180786 8.66918737,34.7725366 L14.2511728,29.0957761 C14.9366797,28.4046922 14.5939262,28.4046922 16.013905,28.4046922 C17.4338837,28.4046922 18.8048977,28.4046922 20.5676299,28.4046922 C21.5958904,28.4046922 32.8088259,28.4046922 33.5432977,28.4046922 C34.9143116,28.0591503 34.9143116,27.0225244 34.9143116,25.5909935 C34.9143116,23.4683787 35.2570651,9.00498017 34.5715581,8.26453314 C34.2288047,7.22790731 32.4660724,6.83300223 31.7805654,7.57344925 C31.0950585,8.26453314 31.0950585,10.041606 31.0950585,11.4731369 C31.0950585,14.2868356 31.0950585,17.1005343 31.0950585,20.3091381 C31.0950585,23.4683787 31.7805654,25.2454516 29.3323262,24.8999096 C27.569594,24.8999096 27.9123475,22.7772948 27.9123475,19.6180542 L27.9123475,10.782053 C27.9123475,9.35052211 28.255101,7.96835433 26.884087,7.22790731 C25.4641083,6.53682342 24.4358478,7.57344925 24.0930943,8.26453314 C24.0930943,8.95561703 24.0930943,19.914233 24.0930943,21.3457639 C24.1420591,25.2948147 24.4848126,24.9492728 18.511109,24.9492728 Z M9.45262391,11.1769581 C5.92715946,11.5225 3.13616677,15.0766458 3.47892026,18.9269703 C4.16442723,24.2088257 11.5091448,27.4174295 15.7201163,22.0862109 C16.7483767,20.65468 17.4828485,18.9269703 17.140095,16.8043555 C16.7973415,13.2995729 13.2718771,10.4365111 9.45262391,11.1769581 Z" id="Shape"></path>
            <path d="M43.0356738,17.2359551 C43.726123,17.2359551 67.7438913,17.2359551 70.5550058,17.2359551 C71.985222,17.2359551 73.3661204,16.8820225 73.711345,18.2977528 C74.0565696,20.1179775 71.9359042,19.7640449 71.245455,19.7640449 L43.0356738,19.7640449 C42.6904492,19.7640449 42.6904492,20.1179775 42.6904492,20.4719101 C42.3452246,21.5337079 42,21.9382022 42,23 C43.4302162,23 49.7428945,23 51.8635599,23 L71.6399974,23 C73.4154382,23 74.451112,22.6460674 75.5361036,21.9382022 C77.3115444,20.4719101 77.656769,16.8820225 75.5361036,15.0617978 C74.5004298,14 73.4154382,14 71.6399974,14 L46.9317799,14 C45.1563392,14 43.4302162,14 42,14 C42,14.3539326 42.6904492,15.0617978 42.6904492,15.4662921 C42.6904492,16.1235955 42.6904492,16.5280899 43.0356738,17.2359551 Z" id="Shape"></path>
            <path d="M20.5,38 C21.872549,38 23,36.872549 23,35.5 C23,34.127451 21.872549,33 20.5,33 C19.127451,33 18,34.127451 18,35.5 C18,36.872549 19.127451,38 20.5,38 Z" id="Shape"></path>
            <path d="M27.5,38 C28.872549,38 30,36.872549 30,35.5 C30,34.127451 28.872549,33 27.5,33 C26.127451,33 25,34.127451 25,35.5 C25,36.872549 26.127451,38 27.5,38 Z" id="Shape"></path>
            <path d="M32.5,38 C33.872549,38 35,36.872549 35,35.5 C35,34.127451 33.872549,33 32.5,33 C31.127451,33 30,34.127451 30,35.5 C30,36.872549 31.0784314,38 32.5,38 Z" id="Shape"></path>
            <path d="M82.5,38 C83.872549,38 85,36.872549 85,35.5 C85,34.127451 83.872549,33 82.5,33 C81.127451,33 80,34.127451 80,35.5 C80,36.872549 81.127451,38 82.5,38 Z" id="Shape"></path>
            <path d="M87.5,38 C88.872549,38 90,36.872549 90,35.5 C90,34.127451 88.872549,33 87.5,33 C86.127451,33 85,34.127451 85,35.5 C85,36.872549 86.127451,38 87.5,38 Z" id="Shape"></path>
            <path d="M103.5,5 C104.872549,5 106,3.87254902 106,2.5 C106,1.12745098 104.872549,0 103.5,0 C102.127451,0 101,1.12745098 101,2.5 C101,3.87254902 102.127451,5 103.5,5 Z" id="Shape"></path>
        </g>
    </g>
</svg>